<mxfile host="app.diagrams.net" modified="2021-11-18T00:31:04.858Z" agent="5.0 (Windows NT 10.0; Win64; x64) AppleWebKit/537.36 (KHTML, like Gecko) Chrome/86.0.4240.183 Safari/537.36" etag="5nAIyUAaGP6awyEQPhRn" version="15.5.5" type="github">
  <diagram name="Page-1" id="e7e014a7-5840-1c2e-5031-d8a46d1fe8dd">
    <mxGraphModel dx="1422" dy="754" grid="1" gridSize="10" guides="1" tooltips="1" connect="1" arrows="1" fold="1" page="1" pageScale="1" pageWidth="1169" pageHeight="826" background="none" math="0" shadow="0">
      <root>
        <mxCell id="0" />
        <mxCell id="1" parent="0" />
        <mxCell id="d2qUUj4gB0jEj0-FNuqT-42" value="我" style="shape=umlLifeline;participant=umlActor;perimeter=lifelinePerimeter;whiteSpace=wrap;html=1;container=1;collapsible=0;recursiveResize=0;verticalAlign=top;spacingTop=36;outlineConnect=0;fillColor=#dae8fc;strokeColor=#6c8ebf;" vertex="1" parent="1">
          <mxGeometry x="160" y="120" width="30" height="600" as="geometry" />
        </mxCell>
        <mxCell id="d2qUUj4gB0jEj0-FNuqT-92" value="" style="html=1;points=[];perimeter=orthogonalPerimeter;" vertex="1" parent="d2qUUj4gB0jEj0-FNuqT-42">
          <mxGeometry x="10" y="510" width="10" height="50" as="geometry" />
        </mxCell>
        <mxCell id="d2qUUj4gB0jEj0-FNuqT-44" value="情绪" style="shape=umlLifeline;perimeter=lifelinePerimeter;whiteSpace=wrap;html=1;container=1;collapsible=0;recursiveResize=0;outlineConnect=0;fillColor=#ffe6cc;strokeColor=#d79b00;" vertex="1" parent="1">
          <mxGeometry x="870" y="120" width="100" height="520" as="geometry" />
        </mxCell>
        <mxCell id="d2qUUj4gB0jEj0-FNuqT-45" value="事件" style="shape=umlLifeline;perimeter=lifelinePerimeter;whiteSpace=wrap;html=1;container=1;collapsible=0;recursiveResize=0;outlineConnect=0;fillColor=#ffe6cc;strokeColor=#d79b00;" vertex="1" parent="1">
          <mxGeometry x="570" y="120" width="160" height="560" as="geometry" />
        </mxCell>
        <mxCell id="d2qUUj4gB0jEj0-FNuqT-63" value="" style="html=1;points=[];perimeter=orthogonalPerimeter;" vertex="1" parent="d2qUUj4gB0jEj0-FNuqT-45">
          <mxGeometry x="75" y="280" width="10" height="80" as="geometry" />
        </mxCell>
        <mxCell id="d2qUUj4gB0jEj0-FNuqT-46" value="" style="endArrow=classic;html=1;rounded=0;" edge="1" parent="1" target="d2qUUj4gB0jEj0-FNuqT-62">
          <mxGeometry width="50" height="50" relative="1" as="geometry">
            <mxPoint x="178" y="320" as="sourcePoint" />
            <mxPoint x="397.5" y="320" as="targetPoint" />
            <Array as="points">
              <mxPoint x="383.5" y="320" />
            </Array>
          </mxGeometry>
        </mxCell>
        <mxCell id="d2qUUj4gB0jEj0-FNuqT-47" value="建立觉察机制" style="edgeLabel;html=1;align=center;verticalAlign=middle;resizable=0;points=[];" vertex="1" connectable="0" parent="d2qUUj4gB0jEj0-FNuqT-46">
          <mxGeometry x="-0.2196" relative="1" as="geometry">
            <mxPoint x="16" y="-10" as="offset" />
          </mxGeometry>
        </mxCell>
        <mxCell id="d2qUUj4gB0jEj0-FNuqT-48" value="" style="endArrow=classic;html=1;rounded=0;" edge="1" parent="1" target="d2qUUj4gB0jEj0-FNuqT-44">
          <mxGeometry width="50" height="50" relative="1" as="geometry">
            <mxPoint x="660" y="440" as="sourcePoint" />
            <mxPoint x="905" y="440" as="targetPoint" />
            <Array as="points">
              <mxPoint x="785.5" y="440" />
            </Array>
          </mxGeometry>
        </mxCell>
        <mxCell id="d2qUUj4gB0jEj0-FNuqT-49" value="产生情绪" style="edgeLabel;html=1;align=center;verticalAlign=middle;resizable=0;points=[];" vertex="1" connectable="0" parent="d2qUUj4gB0jEj0-FNuqT-48">
          <mxGeometry x="-0.2196" relative="1" as="geometry">
            <mxPoint x="16" y="-10" as="offset" />
          </mxGeometry>
        </mxCell>
        <mxCell id="d2qUUj4gB0jEj0-FNuqT-56" value="" style="endArrow=classic;html=1;rounded=0;entryX=0.54;entryY=0.716;entryDx=0;entryDy=0;entryPerimeter=0;" edge="1" parent="1" target="d2qUUj4gB0jEj0-FNuqT-50">
          <mxGeometry width="50" height="50" relative="1" as="geometry">
            <mxPoint x="920" y="522" as="sourcePoint" />
            <mxPoint x="420" y="522" as="targetPoint" />
            <Array as="points">
              <mxPoint x="485.5" y="522" />
            </Array>
          </mxGeometry>
        </mxCell>
        <mxCell id="d2qUUj4gB0jEj0-FNuqT-57" value="触发察觉机制" style="edgeLabel;html=1;align=center;verticalAlign=middle;resizable=0;points=[];" vertex="1" connectable="0" parent="d2qUUj4gB0jEj0-FNuqT-56">
          <mxGeometry x="-0.2196" relative="1" as="geometry">
            <mxPoint x="16" y="-10" as="offset" />
          </mxGeometry>
        </mxCell>
        <mxCell id="d2qUUj4gB0jEj0-FNuqT-50" value="觉察机制" style="shape=umlLifeline;perimeter=lifelinePerimeter;whiteSpace=wrap;html=1;container=1;collapsible=0;recursiveResize=0;outlineConnect=0;fillColor=#e1d5e7;strokeColor=#9673a6;" vertex="1" parent="1">
          <mxGeometry x="360" y="120" width="100" height="560" as="geometry" />
        </mxCell>
        <mxCell id="d2qUUj4gB0jEj0-FNuqT-62" value="" style="html=1;points=[];perimeter=orthogonalPerimeter;" vertex="1" parent="d2qUUj4gB0jEj0-FNuqT-50">
          <mxGeometry x="45" y="200" width="10" height="30" as="geometry" />
        </mxCell>
        <mxCell id="d2qUUj4gB0jEj0-FNuqT-67" value="" style="html=1;points=[];perimeter=orthogonalPerimeter;" vertex="1" parent="d2qUUj4gB0jEj0-FNuqT-50">
          <mxGeometry x="45" y="400" width="10" height="70" as="geometry" />
        </mxCell>
        <mxCell id="d2qUUj4gB0jEj0-FNuqT-60" value="" style="endArrow=classic;html=1;rounded=0;" edge="1" parent="1" source="d2qUUj4gB0jEj0-FNuqT-42">
          <mxGeometry width="50" height="50" relative="1" as="geometry">
            <mxPoint x="185" y="400" as="sourcePoint" />
            <mxPoint x="644.5" y="400" as="targetPoint" />
            <Array as="points">
              <mxPoint x="310.5" y="400" />
            </Array>
          </mxGeometry>
        </mxCell>
        <mxCell id="d2qUUj4gB0jEj0-FNuqT-61" value="处理事件" style="edgeLabel;html=1;align=center;verticalAlign=middle;resizable=0;points=[];" vertex="1" connectable="0" parent="d2qUUj4gB0jEj0-FNuqT-60">
          <mxGeometry x="-0.2196" relative="1" as="geometry">
            <mxPoint x="16" y="-10" as="offset" />
          </mxGeometry>
        </mxCell>
        <mxCell id="d2qUUj4gB0jEj0-FNuqT-65" value="" style="endArrow=classic;html=1;rounded=0;" edge="1" parent="1">
          <mxGeometry width="50" height="50" relative="1" as="geometry">
            <mxPoint x="400" y="560" as="sourcePoint" />
            <mxPoint x="180" y="560" as="targetPoint" />
            <Array as="points">
              <mxPoint x="385.5" y="560" />
            </Array>
          </mxGeometry>
        </mxCell>
        <mxCell id="d2qUUj4gB0jEj0-FNuqT-66" value="询问自己是否处于情绪之中" style="edgeLabel;html=1;align=center;verticalAlign=middle;resizable=0;points=[];" vertex="1" connectable="0" parent="d2qUUj4gB0jEj0-FNuqT-65">
          <mxGeometry x="-0.2196" relative="1" as="geometry">
            <mxPoint x="-14" y="-10" as="offset" />
          </mxGeometry>
        </mxCell>
      </root>
    </mxGraphModel>
  </diagram>
</mxfile>
